REM DIRINDEX 1\4,1\2\5,1\2\6,1\3\7,1\3\8
REM DIRNAME cjc124,folder01,folder02,folder03,folder04,folder05,folder06,folder07
TITLE ""
FILE "104_Day52_Check3_Sentences.mp3" MP3
  TRACK 01 AUDIO
    TITLE "0:"
    INDEX 01 00:00:00
  TRACK 02 AUDIO
    TITLE "4:cjc124_3402"
    INDEX 01 00:00:25
  TRACK 03 AUDIO
    TITLE "0:"
    INDEX 01 00:01:73
  TRACK 04 AUDIO
    TITLE "7:cjc124_3403"
    INDEX 01 00:02:49
  TRACK 05 AUDIO
    TITLE "0:"
    INDEX 01 00:06:61
  TRACK 06 AUDIO
    TITLE "8:cjc124_3404"
    INDEX 01 00:07:03
  TRACK 07 AUDIO
    TITLE "0:"
    INDEX 01 00:10:74
  TRACK 08 AUDIO
    TITLE "7:cjc124_3405"
    INDEX 01 00:11:37
  TRACK 09 AUDIO
    TITLE "0:"
    INDEX 01 00:13:73
  TRACK 10 AUDIO
    TITLE "8:cjc124_3406"
    INDEX 01 00:14:17
  TRACK 11 AUDIO
    TITLE "0:"
    INDEX 01 00:16:34
  TRACK 12 AUDIO
    TITLE "7:cjc124_3407"
    INDEX 01 00:17:00
  TRACK 13 AUDIO
    TITLE "0:"
    INDEX 01 00:22:01
  TRACK 14 AUDIO
    TITLE "8:cjc124_3408"
    INDEX 01 00:22:15
  TRACK 15 AUDIO
    TITLE "0:"
    INDEX 01 00:27:04
  TRACK 16 AUDIO
    TITLE "7:cjc124_3409"
    INDEX 01 00:27:41
  TRACK 17 AUDIO
    TITLE "0:"
    INDEX 01 00:32:58
  TRACK 18 AUDIO
    TITLE "8:cjc124_3410"
    INDEX 01 00:32:70
  TRACK 19 AUDIO
    TITLE "0:"
    INDEX 01 00:37:50
  TRACK 20 AUDIO
    TITLE "7:cjc124_3411"
    INDEX 01 00:38:12
  TRACK 21 AUDIO
    TITLE "0:"
    INDEX 01 00:41:08
  TRACK 22 AUDIO
    TITLE "8:cjc124_3412"
    INDEX 01 00:41:24
  TRACK 23 AUDIO
    TITLE "0:"
    INDEX 01 00:45:16
  TRACK 24 AUDIO
    TITLE "7:cjc124_3413"
    INDEX 01 00:45:55
  TRACK 25 AUDIO
    TITLE "0:"
    INDEX 01 00:50:25
  TRACK 26 AUDIO
    TITLE "8:cjc124_3414"
    INDEX 01 00:50:52
  TRACK 27 AUDIO
    TITLE "0:"
    INDEX 01 00:54:58
  TRACK 28 AUDIO
    TITLE "7:cjc124_3415"
    INDEX 01 00:55:20
  TRACK 29 AUDIO
    TITLE "0:"
    INDEX 01 00:57:58
  TRACK 30 AUDIO
    TITLE "8:cjc124_3416"
    INDEX 01 00:57:74
  TRACK 31 AUDIO
    TITLE "0:"
    INDEX 01 01:00:60
  TRACK 32 AUDIO
    TITLE "7:cjc124_3417"
    INDEX 01 01:01:23
  TRACK 33 AUDIO
    TITLE "0:"
    INDEX 01 01:04:56
  TRACK 34 AUDIO
    TITLE "8:cjc124_3418"
    INDEX 01 01:04:70
  TRACK 35 AUDIO
    TITLE "0:"
    INDEX 01 01:07:43
  TRACK 36 AUDIO
    TITLE "7:cjc124_3419"
    INDEX 01 01:08:01
  TRACK 37 AUDIO
    TITLE "0:"
    INDEX 01 01:12:32
  TRACK 38 AUDIO
    TITLE "8:cjc124_3420"
    INDEX 01 01:12:50
  TRACK 39 AUDIO
    TITLE "0:"
    INDEX 01 01:16:52
  TRACK 40 AUDIO
    TITLE "7:cjc124_3421"
    INDEX 01 01:17:24
  TRACK 41 AUDIO
    TITLE "0:"
    INDEX 01 01:20:34
  TRACK 42 AUDIO
    TITLE "8:cjc124_3422"
    INDEX 01 01:20:51
  TRACK 43 AUDIO
    TITLE "0:"
    INDEX 01 01:23:07
  TRACK 44 AUDIO
    TITLE "7:cjc124_3423"
    INDEX 01 01:23:46
  TRACK 45 AUDIO
    TITLE "0:"
    INDEX 01 01:27:73
  TRACK 46 AUDIO
    TITLE "8:cjc124_3424"
    INDEX 01 01:28:16
  TRACK 47 AUDIO
    TITLE "0:"
    INDEX 01 01:31:49
  TRACK 48 AUDIO
    TITLE "7:cjc124_3425"
    INDEX 01 01:32:10
  TRACK 49 AUDIO
    TITLE "0:"
    INDEX 01 01:34:46
  TRACK 50 AUDIO
    TITLE "8:cjc124_3426"
    INDEX 01 01:34:71
  TRACK 51 AUDIO
    TITLE "0:"
    INDEX 01 01:37:13
  TRACK 52 AUDIO
    TITLE "7:cjc124_3427"
    INDEX 01 01:37:48
  TRACK 53 AUDIO
    TITLE "0:"
    INDEX 01 01:42:37
  TRACK 54 AUDIO
    TITLE "8:cjc124_3428"
    INDEX 01 01:42:59
  TRACK 55 AUDIO
    TITLE "0:"
    INDEX 01 01:45:49
  TRACK 56 AUDIO
    TITLE "7:cjc124_3429"
    INDEX 01 01:46:12
  TRACK 57 AUDIO
    TITLE "0:"
    INDEX 01 01:49:08
  TRACK 58 AUDIO
    TITLE "8:cjc124_3430"
    INDEX 01 01:49:26
  TRACK 59 AUDIO
    TITLE "0:"
    INDEX 01 01:52:49
  TRACK 60 AUDIO
    TITLE "7:cjc124_3431"
    INDEX 01 01:53:12
  TRACK 61 AUDIO
    TITLE "0:"
    INDEX 01 01:56:53
  TRACK 62 AUDIO
    TITLE "8:cjc124_3432"
    INDEX 01 01:57:06
  TRACK 63 AUDIO
    TITLE "0:"
    INDEX 01 02:00:04
  TRACK 64 AUDIO
    TITLE "7:cjc124_3433"
    INDEX 01 02:00:43
  TRACK 65 AUDIO
    TITLE "0:"
    INDEX 01 02:04:55
  TRACK 66 AUDIO
    TITLE "8:cjc124_3434"
    INDEX 01 02:04:68
  TRACK 67 AUDIO
    TITLE "0:"
    INDEX 01 02:08:41
